<mxfile host="Electron" agent="Mozilla/5.0 (Windows NT 10.0; Win64; x64) AppleWebKit/537.36 (KHTML, like Gecko) draw.io/26.2.15 Chrome/134.0.6998.205 Electron/35.2.1 Safari/537.36" version="26.2.15">
  <diagram name="PÃ¡gina-1" id="9JiZYw3LlwE1O-n8uYbZ">
    <mxGraphModel dx="4259" dy="1565" grid="0" gridSize="10" guides="1" tooltips="1" connect="1" arrows="1" fold="1" page="1" pageScale="1" pageWidth="827" pageHeight="1169" math="0" shadow="0">
      <root>
        <mxCell id="0" />
        <mxCell id="1" parent="0" />
        <mxCell id="kSkK_Bz3u5IQAAbRHcTh-19" value="" style="group;movable=1;resizable=1;rotatable=1;deletable=1;editable=1;locked=0;connectable=1;" parent="1" vertex="1" connectable="0">
          <mxGeometry x="-677" y="59" width="311" height="153" as="geometry" />
        </mxCell>
        <mxCell id="kSkK_Bz3u5IQAAbRHcTh-2" value="&lt;font style=&quot;font-size: 15px;&quot;&gt;Tabela&lt;/font&gt;&lt;div&gt;&lt;font style=&quot;font-size: 15px;&quot;&gt;&amp;nbsp;Cliente&lt;/font&gt;&lt;/div&gt;" style="rounded=1;whiteSpace=wrap;html=1;" parent="kSkK_Bz3u5IQAAbRHcTh-19" vertex="1">
          <mxGeometry y="11" width="120" height="60" as="geometry" />
        </mxCell>
        <mxCell id="kSkK_Bz3u5IQAAbRHcTh-7" value="ClienteID ( PK&lt;span style=&quot;background-color: transparent; color: light-dark(rgb(0, 0, 0), rgb(255, 255, 255));&quot;&gt;&amp;nbsp;)&lt;/span&gt;" style="text;strokeColor=none;fillColor=none;spacingLeft=4;spacingRight=4;overflow=hidden;rotatable=0;points=[[0,0.5],[1,0.5]];portConstraint=eastwest;fontSize=12;whiteSpace=wrap;html=1;" parent="kSkK_Bz3u5IQAAbRHcTh-19" vertex="1">
          <mxGeometry x="120" width="188" height="30" as="geometry" />
        </mxCell>
        <mxCell id="kSkK_Bz3u5IQAAbRHcTh-8" value="Nome" style="text;strokeColor=none;fillColor=none;spacingLeft=4;spacingRight=4;overflow=hidden;rotatable=0;points=[[0,0.5],[1,0.5]];portConstraint=eastwest;fontSize=12;whiteSpace=wrap;html=1;" parent="kSkK_Bz3u5IQAAbRHcTh-19" vertex="1">
          <mxGeometry x="120" y="15" width="167" height="30" as="geometry" />
        </mxCell>
        <mxCell id="kSkK_Bz3u5IQAAbRHcTh-12" value="Sobrenome" style="text;strokeColor=none;fillColor=none;spacingLeft=4;spacingRight=4;overflow=hidden;rotatable=0;points=[[0,0.5],[1,0.5]];portConstraint=eastwest;fontSize=12;whiteSpace=wrap;html=1;" parent="kSkK_Bz3u5IQAAbRHcTh-19" vertex="1">
          <mxGeometry x="120" y="29" width="167" height="30" as="geometry" />
        </mxCell>
        <mxCell id="kSkK_Bz3u5IQAAbRHcTh-13" value="CPF" style="text;strokeColor=none;fillColor=none;spacingLeft=4;spacingRight=4;overflow=hidden;rotatable=0;points=[[0,0.5],[1,0.5]];portConstraint=eastwest;fontSize=12;whiteSpace=wrap;html=1;" parent="kSkK_Bz3u5IQAAbRHcTh-19" vertex="1">
          <mxGeometry x="120" y="45" width="167" height="30" as="geometry" />
        </mxCell>
        <mxCell id="kSkK_Bz3u5IQAAbRHcTh-14" value="DataNascimento" style="text;strokeColor=none;fillColor=none;spacingLeft=4;spacingRight=4;overflow=hidden;rotatable=0;points=[[0,0.5],[1,0.5]];portConstraint=eastwest;fontSize=12;whiteSpace=wrap;html=1;" parent="kSkK_Bz3u5IQAAbRHcTh-19" vertex="1">
          <mxGeometry x="120" y="60" width="167" height="30" as="geometry" />
        </mxCell>
        <mxCell id="kSkK_Bz3u5IQAAbRHcTh-15" value="DataAfiliacao" style="text;strokeColor=none;fillColor=none;spacingLeft=4;spacingRight=4;overflow=hidden;rotatable=0;points=[[0,0.5],[1,0.5]];portConstraint=eastwest;fontSize=12;whiteSpace=wrap;html=1;" parent="kSkK_Bz3u5IQAAbRHcTh-19" vertex="1">
          <mxGeometry x="120" y="75" width="167" height="30" as="geometry" />
        </mxCell>
        <mxCell id="kSkK_Bz3u5IQAAbRHcTh-16" value="QntdLivrosReservados" style="text;strokeColor=none;fillColor=none;spacingLeft=4;spacingRight=4;overflow=hidden;rotatable=0;points=[[0,0.5],[1,0.5]];portConstraint=eastwest;fontSize=12;whiteSpace=wrap;html=1;" parent="kSkK_Bz3u5IQAAbRHcTh-19" vertex="1">
          <mxGeometry x="120" y="90" width="167" height="30" as="geometry" />
        </mxCell>
        <mxCell id="kSkK_Bz3u5IQAAbRHcTh-17" value="QntdPendencias" style="text;strokeColor=none;fillColor=none;spacingLeft=4;spacingRight=4;overflow=hidden;rotatable=0;points=[[0,0.5],[1,0.5]];portConstraint=eastwest;fontSize=12;whiteSpace=wrap;html=1;" parent="kSkK_Bz3u5IQAAbRHcTh-19" vertex="1">
          <mxGeometry x="120" y="105" width="167" height="30" as="geometry" />
        </mxCell>
        <mxCell id="kSkK_Bz3u5IQAAbRHcTh-18" value="EnderecoID ( FK )" style="text;strokeColor=none;fillColor=none;spacingLeft=4;spacingRight=4;overflow=hidden;rotatable=0;points=[[0,0.5],[1,0.5]];portConstraint=eastwest;fontSize=12;whiteSpace=wrap;html=1;" parent="kSkK_Bz3u5IQAAbRHcTh-19" vertex="1">
          <mxGeometry x="120" y="120" width="167" height="30" as="geometry" />
        </mxCell>
        <mxCell id="kPzkySfIwQgdmOmbi6qt-10" value="1" style="text;html=1;align=center;verticalAlign=middle;whiteSpace=wrap;rounded=0;" vertex="1" parent="kSkK_Bz3u5IQAAbRHcTh-19">
          <mxGeometry x="26" y="65" width="60" height="30" as="geometry" />
        </mxCell>
        <mxCell id="kSkK_Bz3u5IQAAbRHcTh-31" value="" style="group;movable=1;resizable=1;rotatable=1;deletable=1;editable=1;locked=0;connectable=1;" parent="1" vertex="1" connectable="0">
          <mxGeometry x="-681" y="254" width="409" height="184" as="geometry" />
        </mxCell>
        <mxCell id="kSkK_Bz3u5IQAAbRHcTh-33" value="ReservaID ( PK&lt;span style=&quot;background-color: transparent; color: light-dark(rgb(0, 0, 0), rgb(255, 255, 255));&quot;&gt;&amp;nbsp;)&lt;/span&gt;" style="text;strokeColor=none;fillColor=none;spacingLeft=4;spacingRight=4;overflow=hidden;rotatable=0;points=[[0,0.5],[1,0.5]];portConstraint=eastwest;fontSize=12;whiteSpace=wrap;html=1;" parent="kSkK_Bz3u5IQAAbRHcTh-31" vertex="1">
          <mxGeometry x="120" width="188" height="30" as="geometry" />
        </mxCell>
        <mxCell id="kSkK_Bz3u5IQAAbRHcTh-42" value="" style="group;movable=0;resizable=0;rotatable=0;deletable=0;editable=0;locked=1;connectable=0;" parent="kSkK_Bz3u5IQAAbRHcTh-31" vertex="1" connectable="0">
          <mxGeometry y="11" width="287" height="124" as="geometry" />
        </mxCell>
        <mxCell id="kSkK_Bz3u5IQAAbRHcTh-32" value="&lt;font style=&quot;font-size: 15px;&quot;&gt;Tabela&lt;/font&gt;&lt;div&gt;&lt;font style=&quot;font-size: 15px;&quot;&gt;&amp;nbsp;Reserva&lt;/font&gt;&lt;/div&gt;" style="rounded=1;whiteSpace=wrap;html=1;" parent="kSkK_Bz3u5IQAAbRHcTh-42" vertex="1">
          <mxGeometry width="120" height="60" as="geometry" />
        </mxCell>
        <mxCell id="kSkK_Bz3u5IQAAbRHcTh-34" value="ClienteID ( FK )" style="text;strokeColor=none;fillColor=none;spacingLeft=4;spacingRight=4;overflow=hidden;rotatable=0;points=[[0,0.5],[1,0.5]];portConstraint=eastwest;fontSize=12;whiteSpace=wrap;html=1;" parent="kSkK_Bz3u5IQAAbRHcTh-42" vertex="1">
          <mxGeometry x="120" y="4" width="167" height="30" as="geometry" />
        </mxCell>
        <mxCell id="kSkK_Bz3u5IQAAbRHcTh-35" value="LivroID ( FK )" style="text;strokeColor=none;fillColor=none;spacingLeft=4;spacingRight=4;overflow=hidden;rotatable=0;points=[[0,0.5],[1,0.5]];portConstraint=eastwest;fontSize=12;whiteSpace=wrap;html=1;" parent="kSkK_Bz3u5IQAAbRHcTh-42" vertex="1">
          <mxGeometry x="120" y="18" width="167" height="30" as="geometry" />
        </mxCell>
        <mxCell id="kSkK_Bz3u5IQAAbRHcTh-36" value="DataRetirada" style="text;strokeColor=none;fillColor=none;spacingLeft=4;spacingRight=4;overflow=hidden;rotatable=0;points=[[0,0.5],[1,0.5]];portConstraint=eastwest;fontSize=12;whiteSpace=wrap;html=1;" parent="kSkK_Bz3u5IQAAbRHcTh-42" vertex="1">
          <mxGeometry x="120" y="34" width="167" height="30" as="geometry" />
        </mxCell>
        <mxCell id="kSkK_Bz3u5IQAAbRHcTh-37" value="DataPrevistaEntrega" style="text;strokeColor=none;fillColor=none;spacingLeft=4;spacingRight=4;overflow=hidden;rotatable=0;points=[[0,0.5],[1,0.5]];portConstraint=eastwest;fontSize=12;whiteSpace=wrap;html=1;" parent="kSkK_Bz3u5IQAAbRHcTh-42" vertex="1">
          <mxGeometry x="120" y="49" width="167" height="30" as="geometry" />
        </mxCell>
        <mxCell id="kSkK_Bz3u5IQAAbRHcTh-38" value="DataEntrega" style="text;strokeColor=none;fillColor=none;spacingLeft=4;spacingRight=4;overflow=hidden;rotatable=1;points=[[0,0.5],[1,0.5]];portConstraint=eastwest;fontSize=12;whiteSpace=wrap;html=1;movable=1;resizable=1;deletable=1;editable=1;locked=0;connectable=1;" parent="kSkK_Bz3u5IQAAbRHcTh-42" vertex="1">
          <mxGeometry x="120" y="64" width="167" height="30" as="geometry" />
        </mxCell>
        <mxCell id="kSkK_Bz3u5IQAAbRHcTh-39" value="FormaRetirada" style="text;strokeColor=none;fillColor=none;spacingLeft=4;spacingRight=4;overflow=hidden;rotatable=0;points=[[0,0.5],[1,0.5]];portConstraint=eastwest;fontSize=12;whiteSpace=wrap;html=1;" parent="kSkK_Bz3u5IQAAbRHcTh-42" vertex="1">
          <mxGeometry x="120" y="79" width="167" height="30" as="geometry" />
        </mxCell>
        <mxCell id="kSkK_Bz3u5IQAAbRHcTh-40" value="QuantidadeReservada" style="text;strokeColor=none;fillColor=none;spacingLeft=4;spacingRight=4;overflow=hidden;rotatable=0;points=[[0,0.5],[1,0.5]];portConstraint=eastwest;fontSize=12;whiteSpace=wrap;html=1;" parent="kSkK_Bz3u5IQAAbRHcTh-42" vertex="1">
          <mxGeometry x="119" y="94" width="167" height="30" as="geometry" />
        </mxCell>
        <mxCell id="kPzkySfIwQgdmOmbi6qt-11" value="N" style="text;html=1;align=center;verticalAlign=middle;whiteSpace=wrap;rounded=0;" vertex="1" parent="kSkK_Bz3u5IQAAbRHcTh-31">
          <mxGeometry x="31" y="-12" width="60" height="30" as="geometry" />
        </mxCell>
        <mxCell id="kPzkySfIwQgdmOmbi6qt-30" value="" style="endArrow=none;html=1;rounded=0;entryX=0.568;entryY=0.006;entryDx=0;entryDy=0;entryPerimeter=0;" edge="1" parent="kSkK_Bz3u5IQAAbRHcTh-31">
          <mxGeometry width="50" height="50" relative="1" as="geometry">
            <mxPoint x="63" y="70" as="sourcePoint" />
            <mxPoint x="65" y="205" as="targetPoint" />
          </mxGeometry>
        </mxCell>
        <mxCell id="kSkK_Bz3u5IQAAbRHcTh-43" value="" style="group;movable=1;resizable=1;rotatable=1;deletable=1;editable=1;locked=0;connectable=1;" parent="1" vertex="1" connectable="0">
          <mxGeometry x="-268" y="256" width="306" height="150" as="geometry" />
        </mxCell>
        <mxCell id="kSkK_Bz3u5IQAAbRHcTh-44" value="&lt;font style=&quot;font-size: 15px;&quot;&gt;Tabela&lt;/font&gt;&lt;div&gt;&lt;font style=&quot;font-size: 15px;&quot;&gt;Livro&lt;/font&gt;&lt;/div&gt;" style="rounded=1;whiteSpace=wrap;html=1;movable=0;resizable=0;rotatable=0;deletable=0;editable=0;locked=1;connectable=0;" parent="kSkK_Bz3u5IQAAbRHcTh-43" vertex="1">
          <mxGeometry y="11" width="119.22077922077922" height="60" as="geometry" />
        </mxCell>
        <mxCell id="kSkK_Bz3u5IQAAbRHcTh-45" value="LivroID ( PK&lt;span style=&quot;background-color: transparent; color: light-dark(rgb(0, 0, 0), rgb(255, 255, 255));&quot;&gt;&amp;nbsp;)&lt;/span&gt;" style="text;strokeColor=none;fillColor=none;spacingLeft=4;spacingRight=4;overflow=hidden;rotatable=0;points=[[0,0.5],[1,0.5]];portConstraint=eastwest;fontSize=12;whiteSpace=wrap;html=1;movable=0;resizable=0;deletable=0;editable=0;locked=1;connectable=0;" parent="kSkK_Bz3u5IQAAbRHcTh-43" vertex="1">
          <mxGeometry x="119.22077922077922" width="186.7792207792208" height="30" as="geometry" />
        </mxCell>
        <mxCell id="kSkK_Bz3u5IQAAbRHcTh-46" value="Autor" style="text;strokeColor=none;fillColor=none;spacingLeft=4;spacingRight=4;overflow=hidden;rotatable=0;points=[[0,0.5],[1,0.5]];portConstraint=eastwest;fontSize=12;whiteSpace=wrap;html=1;movable=0;resizable=0;deletable=0;editable=0;locked=1;connectable=0;" parent="kSkK_Bz3u5IQAAbRHcTh-43" vertex="1">
          <mxGeometry x="119.22077922077922" y="15" width="165.91558441558442" height="30" as="geometry" />
        </mxCell>
        <mxCell id="kSkK_Bz3u5IQAAbRHcTh-47" value="NomeLivro" style="text;strokeColor=none;fillColor=none;spacingLeft=4;spacingRight=4;overflow=hidden;rotatable=0;points=[[0,0.5],[1,0.5]];portConstraint=eastwest;fontSize=12;whiteSpace=wrap;html=1;movable=0;resizable=0;deletable=0;editable=0;locked=1;connectable=0;" parent="kSkK_Bz3u5IQAAbRHcTh-43" vertex="1">
          <mxGeometry x="119.22077922077922" y="29" width="165.91558441558442" height="30" as="geometry" />
        </mxCell>
        <mxCell id="kSkK_Bz3u5IQAAbRHcTh-48" value="GeneroID ( FK )" style="text;strokeColor=none;fillColor=none;spacingLeft=4;spacingRight=4;overflow=hidden;rotatable=0;points=[[0,0.5],[1,0.5]];portConstraint=eastwest;fontSize=12;whiteSpace=wrap;html=1;movable=0;resizable=0;deletable=0;editable=0;locked=1;connectable=0;" parent="kSkK_Bz3u5IQAAbRHcTh-43" vertex="1">
          <mxGeometry x="119.22077922077922" y="45" width="165.91558441558442" height="30" as="geometry" />
        </mxCell>
        <mxCell id="kSkK_Bz3u5IQAAbRHcTh-49" value="Idioma" style="text;strokeColor=none;fillColor=none;spacingLeft=4;spacingRight=4;overflow=hidden;rotatable=0;points=[[0,0.5],[1,0.5]];portConstraint=eastwest;fontSize=12;whiteSpace=wrap;html=1;movable=0;resizable=0;deletable=0;editable=0;locked=1;connectable=0;" parent="kSkK_Bz3u5IQAAbRHcTh-43" vertex="1">
          <mxGeometry x="119.22077922077922" y="60" width="165.91558441558442" height="30" as="geometry" />
        </mxCell>
        <mxCell id="kSkK_Bz3u5IQAAbRHcTh-50" value="QuantidadePaginas" style="text;strokeColor=none;fillColor=none;spacingLeft=4;spacingRight=4;overflow=hidden;rotatable=0;points=[[0,0.5],[1,0.5]];portConstraint=eastwest;fontSize=12;whiteSpace=wrap;html=1;movable=0;resizable=0;deletable=0;editable=0;locked=1;connectable=0;" parent="kSkK_Bz3u5IQAAbRHcTh-43" vertex="1">
          <mxGeometry x="119.22077922077922" y="75" width="165.91558441558442" height="30" as="geometry" />
        </mxCell>
        <mxCell id="kSkK_Bz3u5IQAAbRHcTh-51" value="Editora" style="text;strokeColor=none;fillColor=none;spacingLeft=4;spacingRight=4;overflow=hidden;rotatable=0;points=[[0,0.5],[1,0.5]];portConstraint=eastwest;fontSize=12;whiteSpace=wrap;html=1;movable=0;resizable=0;deletable=0;editable=0;locked=1;connectable=0;" parent="kSkK_Bz3u5IQAAbRHcTh-43" vertex="1">
          <mxGeometry x="119.22077922077922" y="90" width="165.91558441558442" height="30" as="geometry" />
        </mxCell>
        <mxCell id="kSkK_Bz3u5IQAAbRHcTh-52" value="DataPublicacao" style="text;strokeColor=none;fillColor=none;spacingLeft=4;spacingRight=4;overflow=hidden;rotatable=0;points=[[0,0.5],[1,0.5]];portConstraint=eastwest;fontSize=12;whiteSpace=wrap;html=1;movable=0;resizable=0;deletable=0;editable=0;locked=1;connectable=0;" parent="kSkK_Bz3u5IQAAbRHcTh-43" vertex="1">
          <mxGeometry x="119.22077922077922" y="105" width="165.91558441558442" height="30" as="geometry" />
        </mxCell>
        <mxCell id="kSkK_Bz3u5IQAAbRHcTh-53" value="QuantidadeDisponivel" style="text;strokeColor=none;fillColor=none;spacingLeft=4;spacingRight=4;overflow=hidden;rotatable=0;points=[[0,0.5],[1,0.5]];portConstraint=eastwest;fontSize=12;whiteSpace=wrap;html=1;movable=0;resizable=0;deletable=0;editable=0;locked=1;connectable=0;" parent="kSkK_Bz3u5IQAAbRHcTh-43" vertex="1">
          <mxGeometry x="119.22077922077922" y="120" width="165.91558441558442" height="30" as="geometry" />
        </mxCell>
        <mxCell id="kPzkySfIwQgdmOmbi6qt-14" value="" style="endArrow=none;html=1;rounded=0;entryX=0.617;entryY=0.767;entryDx=0;entryDy=0;entryPerimeter=0;" edge="1" parent="kSkK_Bz3u5IQAAbRHcTh-43" target="kPzkySfIwQgdmOmbi6qt-29">
          <mxGeometry width="50" height="50" relative="1" as="geometry">
            <mxPoint x="43" y="11" as="sourcePoint" />
            <mxPoint x="43" y="-34" as="targetPoint" />
          </mxGeometry>
        </mxCell>
        <mxCell id="kPzkySfIwQgdmOmbi6qt-37" value="" style="endArrow=none;html=1;rounded=0;entryX=0.568;entryY=0.006;entryDx=0;entryDy=0;entryPerimeter=0;" edge="1" parent="kSkK_Bz3u5IQAAbRHcTh-43">
          <mxGeometry width="50" height="50" relative="1" as="geometry">
            <mxPoint x="47" y="71" as="sourcePoint" />
            <mxPoint x="49" y="206" as="targetPoint" />
          </mxGeometry>
        </mxCell>
        <mxCell id="kPzkySfIwQgdmOmbi6qt-38" value="1" style="text;html=1;align=center;verticalAlign=middle;whiteSpace=wrap;rounded=0;" vertex="1" parent="kSkK_Bz3u5IQAAbRHcTh-43">
          <mxGeometry x="24.610000000000014" y="66" width="60" height="30" as="geometry" />
        </mxCell>
        <mxCell id="kSkK_Bz3u5IQAAbRHcTh-78" value="" style="group;movable=1;resizable=1;rotatable=1;deletable=1;editable=1;locked=0;connectable=1;" parent="1" vertex="1" connectable="0">
          <mxGeometry x="-1038" y="334" width="308" height="150" as="geometry" />
        </mxCell>
        <mxCell id="kSkK_Bz3u5IQAAbRHcTh-89" value="" style="group" parent="kSkK_Bz3u5IQAAbRHcTh-78" vertex="1" connectable="0">
          <mxGeometry width="308" height="105" as="geometry" />
        </mxCell>
        <mxCell id="kSkK_Bz3u5IQAAbRHcTh-79" value="&lt;font style=&quot;font-size: 15px;&quot;&gt;Tabela&lt;/font&gt;&lt;div&gt;&lt;font style=&quot;font-size: 15px;&quot;&gt;&amp;nbsp;Pendencia&lt;/font&gt;&lt;/div&gt;" style="rounded=1;whiteSpace=wrap;html=1;" parent="kSkK_Bz3u5IQAAbRHcTh-89" vertex="1">
          <mxGeometry y="11" width="120" height="60" as="geometry" />
        </mxCell>
        <mxCell id="kSkK_Bz3u5IQAAbRHcTh-80" value="PendenciaID ( PK&lt;span style=&quot;background-color: transparent; color: light-dark(rgb(0, 0, 0), rgb(255, 255, 255));&quot;&gt;&amp;nbsp;)&lt;/span&gt;" style="text;strokeColor=none;fillColor=none;spacingLeft=4;spacingRight=4;overflow=hidden;rotatable=0;points=[[0,0.5],[1,0.5]];portConstraint=eastwest;fontSize=12;whiteSpace=wrap;html=1;" parent="kSkK_Bz3u5IQAAbRHcTh-89" vertex="1">
          <mxGeometry x="120" width="188" height="30" as="geometry" />
        </mxCell>
        <mxCell id="kSkK_Bz3u5IQAAbRHcTh-81" value="ClienteID ( FK )" style="text;strokeColor=none;fillColor=none;spacingLeft=4;spacingRight=4;overflow=hidden;rotatable=0;points=[[0,0.5],[1,0.5]];portConstraint=eastwest;fontSize=12;whiteSpace=wrap;html=1;" parent="kSkK_Bz3u5IQAAbRHcTh-89" vertex="1">
          <mxGeometry x="120" y="15" width="167" height="30" as="geometry" />
        </mxCell>
        <mxCell id="kSkK_Bz3u5IQAAbRHcTh-82" value="ReservaID ( FK )&amp;nbsp;" style="text;strokeColor=none;fillColor=none;spacingLeft=4;spacingRight=4;overflow=hidden;rotatable=0;points=[[0,0.5],[1,0.5]];portConstraint=eastwest;fontSize=12;whiteSpace=wrap;html=1;" parent="kSkK_Bz3u5IQAAbRHcTh-89" vertex="1">
          <mxGeometry x="120" y="29" width="167" height="30" as="geometry" />
        </mxCell>
        <mxCell id="kSkK_Bz3u5IQAAbRHcTh-83" value="Descricao" style="text;strokeColor=none;fillColor=none;spacingLeft=4;spacingRight=4;overflow=hidden;rotatable=0;points=[[0,0.5],[1,0.5]];portConstraint=eastwest;fontSize=12;whiteSpace=wrap;html=1;" parent="kSkK_Bz3u5IQAAbRHcTh-89" vertex="1">
          <mxGeometry x="120" y="45" width="167" height="30" as="geometry" />
        </mxCell>
        <mxCell id="kSkK_Bz3u5IQAAbRHcTh-84" value="DataPendencia&amp;nbsp;" style="text;strokeColor=none;fillColor=none;spacingLeft=4;spacingRight=4;overflow=hidden;rotatable=0;points=[[0,0.5],[1,0.5]];portConstraint=eastwest;fontSize=12;whiteSpace=wrap;html=1;" parent="kSkK_Bz3u5IQAAbRHcTh-89" vertex="1">
          <mxGeometry x="120" y="60" width="167" height="30" as="geometry" />
        </mxCell>
        <mxCell id="kSkK_Bz3u5IQAAbRHcTh-85" value="Resolvida" style="text;strokeColor=none;fillColor=none;spacingLeft=4;spacingRight=4;overflow=hidden;rotatable=0;points=[[0,0.5],[1,0.5]];portConstraint=eastwest;fontSize=12;whiteSpace=wrap;html=1;" parent="kSkK_Bz3u5IQAAbRHcTh-89" vertex="1">
          <mxGeometry x="120" y="75" width="167" height="30" as="geometry" />
        </mxCell>
        <mxCell id="kPzkySfIwQgdmOmbi6qt-7" value="N" style="text;html=1;align=center;verticalAlign=middle;whiteSpace=wrap;rounded=0;" vertex="1" parent="kSkK_Bz3u5IQAAbRHcTh-89">
          <mxGeometry x="36" y="-15" width="60" height="30" as="geometry" />
        </mxCell>
        <mxCell id="kPzkySfIwQgdmOmbi6qt-33" value="" style="endArrow=none;html=1;rounded=0;entryX=0.992;entryY=0.932;entryDx=0;entryDy=0;entryPerimeter=0;" edge="1" parent="kSkK_Bz3u5IQAAbRHcTh-89" target="kSkK_Bz3u5IQAAbRHcTh-78">
          <mxGeometry width="50" height="50" relative="1" as="geometry">
            <mxPoint x="303" y="-26" as="sourcePoint" />
            <mxPoint x="303" y="15" as="targetPoint" />
          </mxGeometry>
        </mxCell>
        <mxCell id="kPzkySfIwQgdmOmbi6qt-48" value="1" style="text;html=1;align=center;verticalAlign=middle;whiteSpace=wrap;rounded=0;" vertex="1" parent="kSkK_Bz3u5IQAAbRHcTh-89">
          <mxGeometry x="38" y="66" width="60" height="30" as="geometry" />
        </mxCell>
        <mxCell id="kPzkySfIwQgdmOmbi6qt-46" value="" style="endArrow=none;html=1;rounded=0;entryX=0.472;entryY=0.006;entryDx=0;entryDy=0;entryPerimeter=0;" edge="1" parent="kSkK_Bz3u5IQAAbRHcTh-78" target="kSkK_Bz3u5IQAAbRHcTh-56">
          <mxGeometry width="50" height="50" relative="1" as="geometry">
            <mxPoint x="59" y="70" as="sourcePoint" />
            <mxPoint x="61" y="205" as="targetPoint" />
          </mxGeometry>
        </mxCell>
        <mxCell id="kSkK_Bz3u5IQAAbRHcTh-90" value="" style="group;movable=1;resizable=1;rotatable=1;deletable=1;editable=1;locked=0;connectable=1;" parent="1" vertex="1" connectable="0">
          <mxGeometry x="-283" y="438" width="308" height="150" as="geometry" />
        </mxCell>
        <mxCell id="kSkK_Bz3u5IQAAbRHcTh-91" value="&lt;font style=&quot;font-size: 15px;&quot;&gt;Tabela&lt;/font&gt;&lt;div&gt;&lt;font style=&quot;font-size: 15px;&quot;&gt;&amp;nbsp;Estoque&lt;/font&gt;&lt;/div&gt;" style="rounded=1;whiteSpace=wrap;html=1;" parent="kSkK_Bz3u5IQAAbRHcTh-90" vertex="1">
          <mxGeometry y="11" width="120" height="60" as="geometry" />
        </mxCell>
        <mxCell id="kSkK_Bz3u5IQAAbRHcTh-92" value="EstoqueID ( PK&lt;span style=&quot;background-color: transparent; color: light-dark(rgb(0, 0, 0), rgb(255, 255, 255));&quot;&gt;&amp;nbsp;)&lt;/span&gt;" style="text;strokeColor=none;fillColor=none;spacingLeft=4;spacingRight=4;overflow=hidden;rotatable=0;points=[[0,0.5],[1,0.5]];portConstraint=eastwest;fontSize=12;whiteSpace=wrap;html=1;" parent="kSkK_Bz3u5IQAAbRHcTh-90" vertex="1">
          <mxGeometry x="120" width="188" height="30" as="geometry" />
        </mxCell>
        <mxCell id="kSkK_Bz3u5IQAAbRHcTh-93" value="LivroID ( PK )&amp;nbsp;" style="text;strokeColor=none;fillColor=none;spacingLeft=4;spacingRight=4;overflow=hidden;rotatable=0;points=[[0,0.5],[1,0.5]];portConstraint=eastwest;fontSize=12;whiteSpace=wrap;html=1;" parent="kSkK_Bz3u5IQAAbRHcTh-90" vertex="1">
          <mxGeometry x="120" y="15" width="167" height="30" as="geometry" />
        </mxCell>
        <mxCell id="kSkK_Bz3u5IQAAbRHcTh-94" value="FornecedorID ( FK )" style="text;strokeColor=none;fillColor=none;spacingLeft=4;spacingRight=4;overflow=hidden;rotatable=0;points=[[0,0.5],[1,0.5]];portConstraint=eastwest;fontSize=12;whiteSpace=wrap;html=1;" parent="kSkK_Bz3u5IQAAbRHcTh-90" vertex="1">
          <mxGeometry x="120" y="29" width="167" height="30" as="geometry" />
        </mxCell>
        <mxCell id="kSkK_Bz3u5IQAAbRHcTh-95" value="Quantidade" style="text;strokeColor=none;fillColor=none;spacingLeft=4;spacingRight=4;overflow=hidden;rotatable=0;points=[[0,0.5],[1,0.5]];portConstraint=eastwest;fontSize=12;whiteSpace=wrap;html=1;" parent="kSkK_Bz3u5IQAAbRHcTh-90" vertex="1">
          <mxGeometry x="120" y="45" width="167" height="30" as="geometry" />
        </mxCell>
        <mxCell id="kSkK_Bz3u5IQAAbRHcTh-96" value="DataEntrada" style="text;strokeColor=none;fillColor=none;spacingLeft=4;spacingRight=4;overflow=hidden;rotatable=0;points=[[0,0.5],[1,0.5]];portConstraint=eastwest;fontSize=12;whiteSpace=wrap;html=1;" parent="kSkK_Bz3u5IQAAbRHcTh-90" vertex="1">
          <mxGeometry x="120" y="60" width="167" height="30" as="geometry" />
        </mxCell>
        <mxCell id="kPzkySfIwQgdmOmbi6qt-39" value="N" style="text;html=1;align=center;verticalAlign=middle;whiteSpace=wrap;rounded=0;" vertex="1" parent="kSkK_Bz3u5IQAAbRHcTh-90">
          <mxGeometry x="41" y="-13" width="60" height="30" as="geometry" />
        </mxCell>
        <mxCell id="kPzkySfIwQgdmOmbi6qt-41" value="" style="endArrow=none;html=1;rounded=0;exitX=0.419;exitY=1.02;exitDx=0;exitDy=0;exitPerimeter=0;" edge="1" parent="kSkK_Bz3u5IQAAbRHcTh-90" source="kSkK_Bz3u5IQAAbRHcTh-91">
          <mxGeometry width="50" height="50" relative="1" as="geometry">
            <mxPoint x="52" y="71" as="sourcePoint" />
            <mxPoint x="51" y="170" as="targetPoint" />
          </mxGeometry>
        </mxCell>
        <mxCell id="kPzkySfIwQgdmOmbi6qt-43" value="N" style="text;html=1;align=center;verticalAlign=middle;whiteSpace=wrap;rounded=0;" vertex="1" parent="kSkK_Bz3u5IQAAbRHcTh-90">
          <mxGeometry x="32" y="68" width="60" height="30" as="geometry" />
        </mxCell>
        <mxCell id="kSkK_Bz3u5IQAAbRHcTh-102" value="" style="group;movable=1;resizable=1;rotatable=1;deletable=1;editable=1;locked=0;connectable=1;" parent="1" vertex="1" connectable="0">
          <mxGeometry x="-674" y="427" width="371" height="230" as="geometry" />
        </mxCell>
        <mxCell id="kSkK_Bz3u5IQAAbRHcTh-103" value="&lt;font style=&quot;font-size: 15px;&quot;&gt;Tabela&lt;/font&gt;&lt;div&gt;&lt;font style=&quot;font-size: 15px;&quot;&gt;&amp;nbsp;Multa&lt;/font&gt;&lt;/div&gt;" style="rounded=1;whiteSpace=wrap;html=1;movable=0;resizable=0;rotatable=0;deletable=0;editable=0;locked=1;connectable=0;" parent="kSkK_Bz3u5IQAAbRHcTh-102" vertex="1">
          <mxGeometry y="11" width="120" height="60" as="geometry" />
        </mxCell>
        <mxCell id="kSkK_Bz3u5IQAAbRHcTh-104" value="MultaID ( PK&lt;span style=&quot;background-color: transparent; color: light-dark(rgb(0, 0, 0), rgb(255, 255, 255));&quot;&gt;&amp;nbsp;)&lt;/span&gt;" style="text;strokeColor=none;fillColor=none;spacingLeft=4;spacingRight=4;overflow=hidden;rotatable=0;points=[[0,0.5],[1,0.5]];portConstraint=eastwest;fontSize=12;whiteSpace=wrap;html=1;" parent="kSkK_Bz3u5IQAAbRHcTh-102" vertex="1">
          <mxGeometry x="120" width="188" height="28.163265306122447" as="geometry" />
        </mxCell>
        <mxCell id="kSkK_Bz3u5IQAAbRHcTh-105" value="PendenciaID ( FK )&amp;nbsp;" style="text;strokeColor=none;fillColor=none;spacingLeft=4;spacingRight=4;overflow=hidden;rotatable=0;points=[[0,0.5],[1,0.5]];portConstraint=eastwest;fontSize=12;whiteSpace=wrap;html=1;" parent="kSkK_Bz3u5IQAAbRHcTh-102" vertex="1">
          <mxGeometry x="120" y="14.081632653061224" width="167" height="28.163265306122447" as="geometry" />
        </mxCell>
        <mxCell id="kSkK_Bz3u5IQAAbRHcTh-106" value="Valor" style="text;strokeColor=none;fillColor=none;spacingLeft=4;spacingRight=4;overflow=hidden;rotatable=0;points=[[0,0.5],[1,0.5]];portConstraint=eastwest;fontSize=12;whiteSpace=wrap;html=1;" parent="kSkK_Bz3u5IQAAbRHcTh-102" vertex="1">
          <mxGeometry x="120" y="27.224489795918366" width="167" height="28.163265306122447" as="geometry" />
        </mxCell>
        <mxCell id="kSkK_Bz3u5IQAAbRHcTh-107" value="DataEmissao" style="text;strokeColor=none;fillColor=none;spacingLeft=4;spacingRight=4;overflow=hidden;rotatable=0;points=[[0,0.5],[1,0.5]];portConstraint=eastwest;fontSize=12;whiteSpace=wrap;html=1;" parent="kSkK_Bz3u5IQAAbRHcTh-102" vertex="1">
          <mxGeometry x="120" y="42.244897959183675" width="167" height="28.163265306122447" as="geometry" />
        </mxCell>
        <mxCell id="kSkK_Bz3u5IQAAbRHcTh-108" value="DataPagamento" style="text;strokeColor=none;fillColor=none;spacingLeft=4;spacingRight=4;overflow=hidden;rotatable=0;points=[[0,0.5],[1,0.5]];portConstraint=eastwest;fontSize=12;whiteSpace=wrap;html=1;" parent="kSkK_Bz3u5IQAAbRHcTh-102" vertex="1">
          <mxGeometry x="120" y="56.326530612244895" width="167" height="28.163265306122447" as="geometry" />
        </mxCell>
        <mxCell id="kSkK_Bz3u5IQAAbRHcTh-109" value="Status" style="text;strokeColor=none;fillColor=none;spacingLeft=4;spacingRight=4;overflow=hidden;rotatable=0;points=[[0,0.5],[1,0.5]];portConstraint=eastwest;fontSize=12;whiteSpace=wrap;html=1;" parent="kSkK_Bz3u5IQAAbRHcTh-102" vertex="1">
          <mxGeometry x="120" y="70.40816326530611" width="167" height="28.163265306122447" as="geometry" />
        </mxCell>
        <mxCell id="kPzkySfIwQgdmOmbi6qt-35" value="N" style="text;html=1;align=center;verticalAlign=middle;whiteSpace=wrap;rounded=0;" vertex="1" parent="kSkK_Bz3u5IQAAbRHcTh-102">
          <mxGeometry x="-46" y="25.389999999999986" width="60" height="30" as="geometry" />
        </mxCell>
        <mxCell id="kSkK_Bz3u5IQAAbRHcTh-114" value="" style="endArrow=none;html=1;rounded=0;" parent="1" edge="1">
          <mxGeometry width="50" height="50" relative="1" as="geometry">
            <mxPoint x="-617" y="58" as="sourcePoint" />
            <mxPoint x="-196" y="58" as="targetPoint" />
          </mxGeometry>
        </mxCell>
        <mxCell id="kSkK_Bz3u5IQAAbRHcTh-115" value="" style="endArrow=none;html=1;rounded=0;" parent="1" edge="1">
          <mxGeometry width="50" height="50" relative="1" as="geometry">
            <mxPoint x="-196" y="102" as="sourcePoint" />
            <mxPoint x="-196" y="57" as="targetPoint" />
          </mxGeometry>
        </mxCell>
        <mxCell id="kSkK_Bz3u5IQAAbRHcTh-116" value="" style="endArrow=none;html=1;rounded=0;exitX=0.5;exitY=0;exitDx=0;exitDy=0;" parent="1" source="kSkK_Bz3u5IQAAbRHcTh-2" edge="1">
          <mxGeometry width="50" height="50" relative="1" as="geometry">
            <mxPoint x="-665" y="108" as="sourcePoint" />
            <mxPoint x="-617" y="57" as="targetPoint" />
            <Array as="points" />
          </mxGeometry>
        </mxCell>
        <mxCell id="kSkK_Bz3u5IQAAbRHcTh-130" value="&lt;font style=&quot;font-size: 15px;&quot;&gt;1&lt;/font&gt;" style="text;html=1;align=center;verticalAlign=middle;whiteSpace=wrap;rounded=0;" parent="1" vertex="1">
          <mxGeometry x="-657" y="47" width="60" height="30" as="geometry" />
        </mxCell>
        <mxCell id="kSkK_Bz3u5IQAAbRHcTh-67" value="" style="group;movable=1;resizable=1;rotatable=1;deletable=1;editable=1;locked=0;connectable=1;" parent="1" vertex="1" connectable="0">
          <mxGeometry x="54" y="438" width="308" height="150" as="geometry" />
        </mxCell>
        <mxCell id="kSkK_Bz3u5IQAAbRHcTh-68" value="&lt;font style=&quot;font-size: 15px;&quot;&gt;Tabela&lt;/font&gt;&lt;div&gt;&lt;font style=&quot;font-size: 15px;&quot;&gt;&amp;nbsp;Fornecedores&lt;/font&gt;&lt;/div&gt;" style="rounded=1;whiteSpace=wrap;html=1;" parent="kSkK_Bz3u5IQAAbRHcTh-67" vertex="1">
          <mxGeometry y="11" width="120" height="60" as="geometry" />
        </mxCell>
        <mxCell id="kSkK_Bz3u5IQAAbRHcTh-69" value="FornecedorID ( PK&lt;span style=&quot;background-color: transparent; color: light-dark(rgb(0, 0, 0), rgb(255, 255, 255));&quot;&gt;&amp;nbsp;)&lt;/span&gt;" style="text;strokeColor=none;fillColor=none;spacingLeft=4;spacingRight=4;overflow=hidden;rotatable=0;points=[[0,0.5],[1,0.5]];portConstraint=eastwest;fontSize=12;whiteSpace=wrap;html=1;" parent="kSkK_Bz3u5IQAAbRHcTh-67" vertex="1">
          <mxGeometry x="120" width="188" height="30" as="geometry" />
        </mxCell>
        <mxCell id="kSkK_Bz3u5IQAAbRHcTh-70" value="NomeEmpresa" style="text;strokeColor=none;fillColor=none;spacingLeft=4;spacingRight=4;overflow=hidden;rotatable=0;points=[[0,0.5],[1,0.5]];portConstraint=eastwest;fontSize=12;whiteSpace=wrap;html=1;" parent="kSkK_Bz3u5IQAAbRHcTh-67" vertex="1">
          <mxGeometry x="120" y="15" width="167" height="30" as="geometry" />
        </mxCell>
        <mxCell id="kSkK_Bz3u5IQAAbRHcTh-71" value="CNPJ" style="text;strokeColor=none;fillColor=none;spacingLeft=4;spacingRight=4;overflow=hidden;rotatable=0;points=[[0,0.5],[1,0.5]];portConstraint=eastwest;fontSize=12;whiteSpace=wrap;html=1;" parent="kSkK_Bz3u5IQAAbRHcTh-67" vertex="1">
          <mxGeometry x="120" y="29" width="167" height="30" as="geometry" />
        </mxCell>
        <mxCell id="kSkK_Bz3u5IQAAbRHcTh-72" value="QuantidadeFornecida" style="text;strokeColor=none;fillColor=none;spacingLeft=4;spacingRight=4;overflow=hidden;rotatable=0;points=[[0,0.5],[1,0.5]];portConstraint=eastwest;fontSize=12;whiteSpace=wrap;html=1;" parent="kSkK_Bz3u5IQAAbRHcTh-67" vertex="1">
          <mxGeometry x="120" y="45" width="167" height="30" as="geometry" />
        </mxCell>
        <mxCell id="kSkK_Bz3u5IQAAbRHcTh-73" value="UltimaDataEntrega" style="text;strokeColor=none;fillColor=none;spacingLeft=4;spacingRight=4;overflow=hidden;rotatable=0;points=[[0,0.5],[1,0.5]];portConstraint=eastwest;fontSize=12;whiteSpace=wrap;html=1;" parent="kSkK_Bz3u5IQAAbRHcTh-67" vertex="1">
          <mxGeometry x="120" y="60" width="167" height="30" as="geometry" />
        </mxCell>
        <mxCell id="kSkK_Bz3u5IQAAbRHcTh-74" value="Endereco" style="text;strokeColor=none;fillColor=none;spacingLeft=4;spacingRight=4;overflow=hidden;rotatable=0;points=[[0,0.5],[1,0.5]];portConstraint=eastwest;fontSize=12;whiteSpace=wrap;html=1;" parent="kSkK_Bz3u5IQAAbRHcTh-67" vertex="1">
          <mxGeometry x="120" y="75" width="167" height="30" as="geometry" />
        </mxCell>
        <mxCell id="kSkK_Bz3u5IQAAbRHcTh-75" value="Contato" style="text;strokeColor=none;fillColor=none;spacingLeft=4;spacingRight=4;overflow=hidden;rotatable=0;points=[[0,0.5],[1,0.5]];portConstraint=eastwest;fontSize=12;whiteSpace=wrap;html=1;" parent="kSkK_Bz3u5IQAAbRHcTh-67" vertex="1">
          <mxGeometry x="120" y="90" width="167" height="30" as="geometry" />
        </mxCell>
        <mxCell id="kPzkySfIwQgdmOmbi6qt-42" value="" style="endArrow=none;html=1;rounded=0;exitX=0.419;exitY=1.02;exitDx=0;exitDy=0;exitPerimeter=0;" edge="1" parent="kSkK_Bz3u5IQAAbRHcTh-67">
          <mxGeometry width="50" height="50" relative="1" as="geometry">
            <mxPoint x="66" y="72" as="sourcePoint" />
            <mxPoint x="67" y="170" as="targetPoint" />
          </mxGeometry>
        </mxCell>
        <mxCell id="kPzkySfIwQgdmOmbi6qt-44" value="1" style="text;html=1;align=center;verticalAlign=middle;whiteSpace=wrap;rounded=0;" vertex="1" parent="kSkK_Bz3u5IQAAbRHcTh-67">
          <mxGeometry x="25" y="71" width="60" height="30" as="geometry" />
        </mxCell>
        <mxCell id="kSkK_Bz3u5IQAAbRHcTh-66" value="" style="group;movable=1;resizable=1;rotatable=1;deletable=1;editable=1;locked=0;connectable=1;" parent="1" vertex="1" connectable="0">
          <mxGeometry x="-1036" y="568" width="308" height="60" as="geometry" />
        </mxCell>
        <mxCell id="kSkK_Bz3u5IQAAbRHcTh-56" value="&lt;font style=&quot;font-size: 15px;&quot;&gt;Tabela&lt;/font&gt;&lt;div&gt;&lt;font style=&quot;font-size: 15px;&quot;&gt;&amp;nbsp;Genero&lt;/font&gt;&lt;/div&gt;" style="rounded=1;whiteSpace=wrap;html=1;" parent="kSkK_Bz3u5IQAAbRHcTh-66" vertex="1">
          <mxGeometry width="120" height="60" as="geometry" />
        </mxCell>
        <mxCell id="kSkK_Bz3u5IQAAbRHcTh-57" value="GeneroID ( PK&lt;span style=&quot;background-color: transparent; color: light-dark(rgb(0, 0, 0), rgb(255, 255, 255));&quot;&gt;&amp;nbsp;)&lt;/span&gt;" style="text;strokeColor=none;fillColor=none;spacingLeft=4;spacingRight=4;overflow=hidden;rotatable=0;points=[[0,0.5],[1,0.5]];portConstraint=eastwest;fontSize=12;whiteSpace=wrap;html=1;" parent="kSkK_Bz3u5IQAAbRHcTh-66" vertex="1">
          <mxGeometry x="120" y="6" width="188" height="30" as="geometry" />
        </mxCell>
        <mxCell id="kSkK_Bz3u5IQAAbRHcTh-58" value="NomeGenero" style="text;strokeColor=none;fillColor=none;spacingLeft=4;spacingRight=4;overflow=hidden;rotatable=0;points=[[0,0.5],[1,0.5]];portConstraint=eastwest;fontSize=12;whiteSpace=wrap;html=1;" parent="kSkK_Bz3u5IQAAbRHcTh-66" vertex="1">
          <mxGeometry x="120" y="21" width="167" height="30" as="geometry" />
        </mxCell>
        <mxCell id="kSkK_Bz3u5IQAAbRHcTh-20" value="" style="group;movable=1;resizable=1;rotatable=1;deletable=1;editable=1;locked=0;connectable=1;" parent="1" vertex="1" connectable="0">
          <mxGeometry x="-255" y="91" width="308" height="157" as="geometry" />
        </mxCell>
        <mxCell id="kSkK_Bz3u5IQAAbRHcTh-21" value="&lt;font style=&quot;font-size: 15px;&quot;&gt;Tabela&lt;/font&gt;&lt;div&gt;&lt;font style=&quot;font-size: 15px;&quot;&gt;&amp;nbsp;Endereco&lt;/font&gt;&lt;/div&gt;" style="rounded=1;whiteSpace=wrap;html=1;" parent="kSkK_Bz3u5IQAAbRHcTh-20" vertex="1">
          <mxGeometry y="11" width="120" height="60" as="geometry" />
        </mxCell>
        <mxCell id="kSkK_Bz3u5IQAAbRHcTh-22" value="EnderecoID ( PK&lt;span style=&quot;background-color: transparent; color: light-dark(rgb(0, 0, 0), rgb(255, 255, 255));&quot;&gt;&amp;nbsp;)&lt;/span&gt;" style="text;strokeColor=none;fillColor=none;spacingLeft=4;spacingRight=4;overflow=hidden;rotatable=0;points=[[0,0.5],[1,0.5]];portConstraint=eastwest;fontSize=12;whiteSpace=wrap;html=1;" parent="kSkK_Bz3u5IQAAbRHcTh-20" vertex="1">
          <mxGeometry x="120" width="188" height="30" as="geometry" />
        </mxCell>
        <mxCell id="kSkK_Bz3u5IQAAbRHcTh-23" value="Cep" style="text;strokeColor=none;fillColor=none;spacingLeft=4;spacingRight=4;overflow=hidden;rotatable=0;points=[[0,0.5],[1,0.5]];portConstraint=eastwest;fontSize=12;whiteSpace=wrap;html=1;" parent="kSkK_Bz3u5IQAAbRHcTh-20" vertex="1">
          <mxGeometry x="120" y="15" width="167" height="30" as="geometry" />
        </mxCell>
        <mxCell id="kSkK_Bz3u5IQAAbRHcTh-24" value="Rua" style="text;strokeColor=none;fillColor=none;spacingLeft=4;spacingRight=4;overflow=hidden;rotatable=0;points=[[0,0.5],[1,0.5]];portConstraint=eastwest;fontSize=12;whiteSpace=wrap;html=1;" parent="kSkK_Bz3u5IQAAbRHcTh-20" vertex="1">
          <mxGeometry x="120" y="29" width="167" height="30" as="geometry" />
        </mxCell>
        <mxCell id="kSkK_Bz3u5IQAAbRHcTh-25" value="Numero" style="text;strokeColor=none;fillColor=none;spacingLeft=4;spacingRight=4;overflow=hidden;rotatable=0;points=[[0,0.5],[1,0.5]];portConstraint=eastwest;fontSize=12;whiteSpace=wrap;html=1;" parent="kSkK_Bz3u5IQAAbRHcTh-20" vertex="1">
          <mxGeometry x="120" y="45" width="167" height="30" as="geometry" />
        </mxCell>
        <mxCell id="kSkK_Bz3u5IQAAbRHcTh-26" value="Bairro" style="text;strokeColor=none;fillColor=none;spacingLeft=4;spacingRight=4;overflow=hidden;rotatable=0;points=[[0,0.5],[1,0.5]];portConstraint=eastwest;fontSize=12;whiteSpace=wrap;html=1;" parent="kSkK_Bz3u5IQAAbRHcTh-20" vertex="1">
          <mxGeometry x="120" y="60" width="167" height="30" as="geometry" />
        </mxCell>
        <mxCell id="kSkK_Bz3u5IQAAbRHcTh-27" value="Cidade" style="text;strokeColor=none;fillColor=none;spacingLeft=4;spacingRight=4;overflow=hidden;rotatable=0;points=[[0,0.5],[1,0.5]];portConstraint=eastwest;fontSize=12;whiteSpace=wrap;html=1;" parent="kSkK_Bz3u5IQAAbRHcTh-20" vertex="1">
          <mxGeometry x="120" y="75" width="167" height="30" as="geometry" />
        </mxCell>
        <mxCell id="kSkK_Bz3u5IQAAbRHcTh-28" value="Estado" style="text;strokeColor=none;fillColor=none;spacingLeft=4;spacingRight=4;overflow=hidden;rotatable=0;points=[[0,0.5],[1,0.5]];portConstraint=eastwest;fontSize=12;whiteSpace=wrap;html=1;" parent="kSkK_Bz3u5IQAAbRHcTh-20" vertex="1">
          <mxGeometry x="120" y="90" width="167" height="30" as="geometry" />
        </mxCell>
        <mxCell id="kSkK_Bz3u5IQAAbRHcTh-29" value="Complemento" style="text;strokeColor=none;fillColor=none;spacingLeft=4;spacingRight=4;overflow=hidden;rotatable=0;points=[[0,0.5],[1,0.5]];portConstraint=eastwest;fontSize=12;whiteSpace=wrap;html=1;" parent="kSkK_Bz3u5IQAAbRHcTh-20" vertex="1">
          <mxGeometry x="120" y="105" width="167" height="30" as="geometry" />
        </mxCell>
        <mxCell id="kSkK_Bz3u5IQAAbRHcTh-131" value="&lt;font style=&quot;font-size: 15px;&quot;&gt;1&lt;/font&gt;" style="text;html=1;align=center;verticalAlign=middle;whiteSpace=wrap;rounded=0;" parent="kSkK_Bz3u5IQAAbRHcTh-20" vertex="1">
          <mxGeometry x="20" y="-13" width="60" height="30" as="geometry" />
        </mxCell>
        <mxCell id="kPzkySfIwQgdmOmbi6qt-13" value="" style="endArrow=none;html=1;rounded=0;" edge="1" parent="kSkK_Bz3u5IQAAbRHcTh-20">
          <mxGeometry width="50" height="50" relative="1" as="geometry">
            <mxPoint x="-326" y="150" as="sourcePoint" />
            <mxPoint x="30" y="150" as="targetPoint" />
          </mxGeometry>
        </mxCell>
        <mxCell id="kPzkySfIwQgdmOmbi6qt-29" value="1" style="text;html=1;align=center;verticalAlign=middle;whiteSpace=wrap;rounded=0;" vertex="1" parent="kSkK_Bz3u5IQAAbRHcTh-20">
          <mxGeometry x="-7" y="127" width="60" height="30" as="geometry" />
        </mxCell>
        <mxCell id="kPzkySfIwQgdmOmbi6qt-55" value="1" style="text;html=1;align=center;verticalAlign=middle;whiteSpace=wrap;rounded=0;" vertex="1" parent="kSkK_Bz3u5IQAAbRHcTh-20">
          <mxGeometry x="62" y="127" width="60" height="30" as="geometry" />
        </mxCell>
        <mxCell id="kPzkySfIwQgdmOmbi6qt-2" value="" style="endArrow=none;html=1;rounded=0;" edge="1" parent="1">
          <mxGeometry width="50" height="50" relative="1" as="geometry">
            <mxPoint x="-965" y="98" as="sourcePoint" />
            <mxPoint x="-676" y="98" as="targetPoint" />
          </mxGeometry>
        </mxCell>
        <mxCell id="kPzkySfIwQgdmOmbi6qt-3" value="" style="endArrow=none;html=1;rounded=0;" edge="1" parent="1">
          <mxGeometry width="50" height="50" relative="1" as="geometry">
            <mxPoint x="-965" y="98" as="sourcePoint" />
            <mxPoint x="-965" y="345" as="targetPoint" />
          </mxGeometry>
        </mxCell>
        <mxCell id="kPzkySfIwQgdmOmbi6qt-4" value="1" style="text;html=1;align=center;verticalAlign=middle;whiteSpace=wrap;rounded=0;" vertex="1" parent="1">
          <mxGeometry x="-730" y="73" width="60" height="30" as="geometry" />
        </mxCell>
        <mxCell id="kPzkySfIwQgdmOmbi6qt-9" value="" style="endArrow=none;html=1;rounded=0;entryX=0.568;entryY=0.006;entryDx=0;entryDy=0;entryPerimeter=0;" edge="1" parent="1" target="kSkK_Bz3u5IQAAbRHcTh-32">
          <mxGeometry width="50" height="50" relative="1" as="geometry">
            <mxPoint x="-615" y="130" as="sourcePoint" />
            <mxPoint x="-615" y="377" as="targetPoint" />
          </mxGeometry>
        </mxCell>
        <mxCell id="kPzkySfIwQgdmOmbi6qt-15" value="" style="endArrow=none;html=1;rounded=0;entryX=0.099;entryY=1.002;entryDx=0;entryDy=0;entryPerimeter=0;" edge="1" parent="1">
          <mxGeometry width="50" height="50" relative="1" as="geometry">
            <mxPoint x="-581" y="267" as="sourcePoint" />
            <mxPoint x="-581" y="241" as="targetPoint" />
          </mxGeometry>
        </mxCell>
        <mxCell id="kPzkySfIwQgdmOmbi6qt-28" value="N" style="text;html=1;align=center;verticalAlign=middle;whiteSpace=wrap;rounded=0;" vertex="1" parent="1">
          <mxGeometry x="-599" y="219" width="60" height="30" as="geometry" />
        </mxCell>
        <mxCell id="kPzkySfIwQgdmOmbi6qt-31" value="" style="endArrow=none;html=1;rounded=0;entryX=0.568;entryY=0.006;entryDx=0;entryDy=0;entryPerimeter=0;" edge="1" parent="1">
          <mxGeometry width="50" height="50" relative="1" as="geometry">
            <mxPoint x="-925" y="306" as="sourcePoint" />
            <mxPoint x="-925" y="347" as="targetPoint" />
          </mxGeometry>
        </mxCell>
        <mxCell id="kPzkySfIwQgdmOmbi6qt-32" value="" style="endArrow=none;html=1;rounded=0;" edge="1" parent="1">
          <mxGeometry width="50" height="50" relative="1" as="geometry">
            <mxPoint x="-925" y="306" as="sourcePoint" />
            <mxPoint x="-735" y="306" as="targetPoint" />
          </mxGeometry>
        </mxCell>
        <mxCell id="kPzkySfIwQgdmOmbi6qt-34" value="" style="endArrow=none;html=1;rounded=0;entryX=0.99;entryY=0.965;entryDx=0;entryDy=0;entryPerimeter=0;exitX=-0.002;exitY=0.209;exitDx=0;exitDy=0;exitPerimeter=0;" edge="1" parent="1" source="kSkK_Bz3u5IQAAbRHcTh-102">
          <mxGeometry width="50" height="50" relative="1" as="geometry">
            <mxPoint x="-674" y="489.2784773898111" as="sourcePoint" />
            <mxPoint x="-733.0799999999999" y="474" as="targetPoint" />
          </mxGeometry>
        </mxCell>
        <mxCell id="kPzkySfIwQgdmOmbi6qt-36" value="1" style="text;html=1;align=center;verticalAlign=middle;whiteSpace=wrap;rounded=0;" vertex="1" parent="1">
          <mxGeometry x="-944" y="283" width="60" height="30" as="geometry" />
        </mxCell>
        <mxCell id="kPzkySfIwQgdmOmbi6qt-40" value="" style="endArrow=none;html=1;rounded=0;" edge="1" parent="1">
          <mxGeometry width="50" height="50" relative="1" as="geometry">
            <mxPoint x="-233" y="608" as="sourcePoint" />
            <mxPoint x="122" y="608" as="targetPoint" />
          </mxGeometry>
        </mxCell>
        <mxCell id="kPzkySfIwQgdmOmbi6qt-47" value="N" style="text;html=1;align=center;verticalAlign=middle;whiteSpace=wrap;rounded=0;" vertex="1" parent="1">
          <mxGeometry x="-1001" y="544" width="60" height="30" as="geometry" />
        </mxCell>
        <mxCell id="kPzkySfIwQgdmOmbi6qt-50" value="" style="endArrow=none;html=1;rounded=0;" edge="1" parent="1">
          <mxGeometry width="50" height="50" relative="1" as="geometry">
            <mxPoint x="-978" y="798" as="sourcePoint" />
            <mxPoint x="390" y="798" as="targetPoint" />
          </mxGeometry>
        </mxCell>
        <mxCell id="kPzkySfIwQgdmOmbi6qt-51" value="" style="endArrow=none;html=1;rounded=0;entryX=0.472;entryY=0.006;entryDx=0;entryDy=0;entryPerimeter=0;exitX=0.186;exitY=1.012;exitDx=0;exitDy=0;exitPerimeter=0;" edge="1" parent="1" source="kSkK_Bz3u5IQAAbRHcTh-66">
          <mxGeometry width="50" height="50" relative="1" as="geometry">
            <mxPoint x="-979" y="635" as="sourcePoint" />
            <mxPoint x="-979" y="799" as="targetPoint" />
          </mxGeometry>
        </mxCell>
        <mxCell id="kPzkySfIwQgdmOmbi6qt-52" value="" style="endArrow=none;html=1;rounded=0;entryX=0.472;entryY=0.006;entryDx=0;entryDy=0;entryPerimeter=0;" edge="1" parent="1">
          <mxGeometry width="50" height="50" relative="1" as="geometry">
            <mxPoint x="389" y="241" as="sourcePoint" />
            <mxPoint x="390" y="800" as="targetPoint" />
          </mxGeometry>
        </mxCell>
        <mxCell id="kPzkySfIwQgdmOmbi6qt-53" value="" style="endArrow=none;html=1;rounded=0;entryX=0.617;entryY=0.767;entryDx=0;entryDy=0;entryPerimeter=0;" edge="1" parent="1">
          <mxGeometry width="50" height="50" relative="1" as="geometry">
            <mxPoint x="-165" y="267" as="sourcePoint" />
            <mxPoint x="-165" y="241" as="targetPoint" />
          </mxGeometry>
        </mxCell>
        <mxCell id="kPzkySfIwQgdmOmbi6qt-54" value="" style="endArrow=none;html=1;rounded=0;" edge="1" parent="1">
          <mxGeometry width="50" height="50" relative="1" as="geometry">
            <mxPoint x="-165" y="241.51" as="sourcePoint" />
            <mxPoint x="389.7805354420732" y="241" as="targetPoint" />
          </mxGeometry>
        </mxCell>
        <mxCell id="kPzkySfIwQgdmOmbi6qt-56" value="N" style="text;html=1;align=center;verticalAlign=middle;whiteSpace=wrap;rounded=0;" vertex="1" parent="1">
          <mxGeometry x="-1000" y="624" width="60" height="30" as="geometry" />
        </mxCell>
      </root>
    </mxGraphModel>
  </diagram>
</mxfile>
